<?xml version="1.0" encoding="utf-8"?>
<!-- Generator: Adobe Illustrator 26.0.1, SVG Export Plug-In . SVG Version: 6.00 Build 0)  -->
<svg version="1.1" id="Layer_1" xmlns="http://www.w3.org/2000/svg" xmlns:xlink="http://www.w3.org/1999/xlink" x="0px" y="0px"
	 viewBox="0 0 107.7 76" style="enable-background:new 0 0 107.7 76;" xml:space="preserve">
<style type="text/css">
	.st0{fill:#FFFFFF;}
	.st1{fill:#1D428A;}
	.st2{fill:#C8102E;}
</style>
<g id="Page-1_1_">
	<g id="webSVG">
		<g id="Page-1" transform="translate(11.000000, 0.000000)">
			<g id="Group-3">
				<g id="Clip-2">
				</g>
				<path id="Fill-1" class="st0" d="M75.5,8.5v59.8c0,4.3-3.6,7.7-7.8,7.7H50.1c-4.3,0-7.8-3.4-7.8-7.7V8.5c0-4.3,3.6-7.8,7.8-7.8
					h17.7C72,0.7,75.5,4.1,75.5,8.5"/>
			</g>
			<path id="Fill-4" class="st1" d="M67.7,74.2H50.1c-3.3,0-6-2.6-6-5.9V8.5c0-3.3,2.7-6,6-6h10c-1.9,0.8-2.2,1.6-2.3,4.3
				c-0.3,0.1-1-0.3-0.7,1.4c0,0,0.1,1.1,0.5,0.9c-0.4,2.8,0.1,3.1-2.9,3.2l-0.1,0.2c-3,0.3-3.9-0.1-6.5,5c0,0-0.7,1.6-0.9,2.2
				c-0.6,1.3-2.1,4.2-2.6,6.1c-0.2,0.6-0.5,0.8-0.1,1.7c0.6,1.3-0.4,1.6,3,1.5v0.8c0,0-0.9,0.8-1.1,1.2c-0.2,0.5-0.7,2.8-0.7,3.9
				c0.1,2.9,2.4,5.3,3.1,8.1l1.6,0.3c0.8,1.9,4.6,7.3,5.5,8c0.2,0.5,1.2,1.1,1.7,1.8c0.5,0.4,3.2,3.5,6.5,5.2c0,0,0.6,1.1,0.8,2
				c-1,0.8,1,2.4,1.7,5c0,0.4-0.6,0.7,0.3,1.6C66.8,71.1,65.7,73.2,67.7,74.2"/>
			<path id="Fill-6" class="st2" d="M61.4,13.3c-0.3-0.2-0.2-0.6,0-0.8c0.5-0.1,1.1-1.1,1.6-2.2c0.4,0,0.5-0.4,0.7-0.6
				c0.4-0.7,0.9-1.3,0.3-1.7c1.3-2.4,0.4-4.1-0.3-4.1c-0.3-0.6-0.8-1-1.7-1.4h5.7c3.2,0,5.9,2.7,5.9,6v28.8
				c-0.2-0.4-0.4-0.8-0.7-1.2c0-0.8-0.8-0.8-1.1-1.1c-0.2-0.2,0.2-0.4-1.2-0.7c-0.3-0.2-0.5-2.3-0.5-2.3c-0.3-1.4-0.8-2.4-1.5-3.9
				c-0.4-0.7-0.6-3.1-1-4.3c0.3-5.6-1.5-7.2-2.9-8.1c-0.6-0.3-0.8-0.6-1.4-0.9v-0.2C62.9,14.1,62,13.7,61.4,13.3L61.4,13.3z
				 M73.6,68.3c0,3-2.2,5.5-5,5.9h-0.1c2.6-1.6,1-4.6,0.5-6.5c0-0.1,0.1-0.2,0.1-0.3c0.2-0.2-0.1-0.8-0.1-0.8
				c-0.3-0.2-0.4-1.7-0.6-2.4c-0.3-1.1,0.5-3,0.5-3.7c0-0.6-0.5-1.5-1.4-2.7c-0.2-0.2-0.8-5.8-1.4-7.2c-0.8-1.9-1.1-1.6-2-4
				c-0.8-1.6-0.2-4-1.9-9.7l0.4-0.4c0,0-1.3-4.8-1.8-6.1c-0.4-1.4-1.2-1.5-1.2-1.5s0-0.5,0.1-0.6c0-0.3,1.6-4.3,1.7-4.5
				c0-0.1,2.3-1.6,2.3-1.4c0.2,1,1.1,6,1.4,6.8c0.4,0.8,1.7,3.3,2.3,4.8c-2.3,0.6-4,2.7-4,5.2c0,2.9,2.3,5.3,5.3,5.3
				c2.2,0,4.1-1.4,4.9-3.4L73.6,68.3L73.6,68.3z"/>
			<g id="Group-10" transform="translate(22.000000, 0.000000)">
				<g id="Clip-9">
				</g>
				<path id="Fill-8" class="st0" d="M37.3,68h0.8L38,65.9c-0.1-0.8-0.2-3.5-0.3-4.9h-0.1l-0.2,4.9L37.3,68z M38.2,69.3h-0.9
					l-0.1,2.2h-1.6L36.6,60h2.2l1.1,11.5h-1.5L38.2,69.3z M32.9,66.4V70h0.3c0.5,0,0.6-0.3,0.6-0.8v-1.9c0-0.5-0.2-0.7-0.7-0.7
					L32.9,66.4L32.9,66.4z M32.9,61.4v3.8h0.2c0.5,0,0.7-0.2,0.7-0.8v-2.2c0-0.5-0.2-0.7-0.6-0.7L32.9,61.4L32.9,61.4z M31.3,71.4
					V60h1.9c1.3,0,2.1,0.7,2.1,2.3V64c0,1-0.4,1.5-0.7,1.8c0.5,0.3,0.7,0.8,0.7,1.7v1.6c0,1.5-0.8,2.3-2.1,2.3
					C33.2,71.4,31.3,71.4,31.3,71.4z M27.6,71.4h-1.4V60h2.1l1.4,9.5c-0.2-2.3-0.5-5.9-0.5-7.8V60h1.4v11.5h-1.9l-1.3-9.2
					c0.1,2.1,0.2,4.6,0.2,5.9V71.4z"/>
			</g>
			<circle class="st0" cx="91.4" cy="39.5" r="5.3"/>
		</g>
	</g>
</g>
</svg>
